<svg xmlns="http://www.w3.org/2000/svg" viewBox="0 0 259.66 251.75"><defs><style>.cls-1{fill:#93d3eb;}.cls-2{fill:#67ba81;}.cls-3{fill:#cc5ea0;}</style></defs><g id="Calque_2" data-name="Calque 2"><g id="Calque_1-2" data-name="Calque 1"><path class="cls-1" d="M130.87,0a69,69,0,1,0,69,69A69,69,0,0,0,130.87,0Zm0,90.48A21.47,21.47,0,1,1,152.34,69,21.47,21.47,0,0,1,130.87,90.48Z"/><path class="cls-2" d="M130.87,8.22a69,69,0,1,0,69,69A69,69,0,0,0,130.87,8.22Zm0,90.48a21.47,21.47,0,1,1,21.47-21.47A21.47,21.47,0,0,1,130.87,98.7Z"/><path class="cls-3" d="M130.87,15a69,69,0,1,0,69,69A69,69,0,0,0,130.87,15Zm0,90.48A21.47,21.47,0,1,1,152.34,84,21.47,21.47,0,0,1,130.87,105.51Z"/><path class="cls-1" d="M69,98.7a69,69,0,1,0,69,69A69,69,0,0,0,69,98.7Zm0,90.48a21.47,21.47,0,1,1,21.47-21.47A21.47,21.47,0,0,1,69,189.18Z"/><path class="cls-2" d="M69,106.91a69,69,0,1,0,69,69A69,69,0,0,0,69,106.91Zm0,90.49a21.47,21.47,0,1,1,21.47-21.47A21.47,21.47,0,0,1,69,197.4Z"/><path class="cls-3" d="M69,113.73a69,69,0,1,0,69,69A69,69,0,0,0,69,113.73Zm0,90.48a21.47,21.47,0,1,1,21.47-21.47A21.47,21.47,0,0,1,69,204.21Z"/><path class="cls-1" d="M190.65,98.7a69,69,0,1,0,69,69A69,69,0,0,0,190.65,98.7Zm0,90.48a21.47,21.47,0,1,1,21.47-21.47A21.47,21.47,0,0,1,190.65,189.18Z"/><path class="cls-2" d="M190.65,106.91a69,69,0,1,0,69,69A69,69,0,0,0,190.65,106.91Zm0,90.49a21.47,21.47,0,1,1,21.47-21.47A21.47,21.47,0,0,1,190.65,197.4Z"/><path class="cls-3" d="M190.65,113.73a69,69,0,1,0,69,69A69,69,0,0,0,190.65,113.73Zm0,90.48a21.47,21.47,0,1,1,21.47-21.47A21.47,21.47,0,0,1,190.65,204.21Z"/></g></g></svg>